<svg width="14" height="19" xmlns="http://www.w3.org/2000/svg">

 <g>
  <title>background</title>
  <rect fill="none" id="canvas_background" height="402" width="582" y="-1" x="-1"/>
 </g>
 <g>
  <title>Layer 1</title>
  <path id="svg_1" fill="#ffffff" d="m11.77,17.7843l-4.29,-3.29c-0.40776,-0.31 -0.97224,-0.31 -1.38,0l-4.33,3.29c-0.31576,0.2538 -0.74623,0.3116 -1.11772,0.15c-0.3715,-0.1616 -0.62271,-0.5159 -0.65228,-0.92l0,-14.05999c0.03878,-0.82433 0.40465,-1.59918 1.01656,-2.1529c0.61191,-0.55372 1.41934,-0.8406 2.24344,-0.7971l7,0c0.8291,-0.03788 1.6387,0.25825 2.2477,0.82212c0.6089,0.56386 0.9664,1.34836 0.9923,2.17788l0,14.00999c-0.0389,0.3895 -0.2837,0.7283 -0.6414,0.8874c-0.3576,0.1592 -0.7731,0.1144 -1.0886,-0.1174z"/>
 </g>
</svg>