<svg width="14" height="18.999999999999996" xmlns="http://www.w3.org/2000/svg">

 <g>
  <title>background</title>
  <rect fill="none" id="canvas_background" height="402" width="582" y="-1" x="-1"/>
 </g>
 <g>
  <title>Layer 1</title>
  <path id="svg_1" fill="#917cff" d="m11.77,17.7843l-4.29,-3.29c-0.40776,-0.31 -0.97224,-0.31 -1.38,0l-4.33,3.29c-0.31576,0.2538 -0.74623,0.3116 -1.117725,0.15c-0.371493,-0.1616 -0.622708,-0.5159 -0.652275,-0.92l0,-14.05999c0.038784,-0.82433 0.404652,-1.59918 1.01656,-2.1529c0.61191,-0.553719 1.41934,-0.8406 2.24344,-0.797095l7,0c0.8291,-0.037885 1.6387,0.258248 2.2477,0.82211c0.6089,0.563865 0.9664,1.348365 0.9923,2.177885l0,14.00999c-0.0389,0.3895 -0.2837,0.7283 -0.6414,0.8874c-0.3576,0.1592 -0.7731,0.1144 -1.0886,-0.1174z"/>
 </g>
</svg>