<svg width="20" height="20" xmlns="http://www.w3.org/2000/svg">

 <g>
  <title>background</title>
  <rect fill="none" id="canvas_background" height="402" width="582" y="-1" x="-1"/>
 </g>
 <g>
  <title>Layer 1</title>
  <path id="svg_1" fill="#917cff" d="m17.2264,6.73077c0.1905,0.46414 0.6419,0.76777 1.1436,0.76923c0.6809,0.00549 1.23,0.55905 1.23,1.24l0,2.14c0,0.6848 -0.5552,1.24 -1.24,1.24c-0.5017,0.0015 -0.9531,0.3051 -1.1436,0.7692c-0.1904,0.4642 -0.0824,0.9973 0.2736,1.3508c0.4776,0.4895 0.4776,1.2706 0,1.76l-1.5,1.5c-0.4895,0.4776 -1.2705,0.4776 -1.76,0c-0.2258,-0.2392 -0.5411,-0.3733 -0.87,-0.37c-0.3306,-0.0027 -0.6486,0.1268 -0.8833,0.3596c-0.2347,0.2329 -0.3667,0.5498 -0.3667,0.8804c0,0.6848 -0.5552,1.24 -1.24,1.24l-2.14,0c-0.68483,0 -1.24,-0.5552 -1.24,-1.24c0.00001,-0.3306 -0.132,-0.6475 -0.36672,-0.8804c-0.23471,-0.2328 -0.55268,-0.3623 -0.88328,-0.3596c-0.32889,-0.0033 -0.64424,0.1308 -0.87,0.37c-0.48945,0.4776 -1.27055,0.4776 -1.76,0l-1.5,-1.5c-0.47763,-0.4894 -0.47763,-1.2705 0,-1.76c0.35605,-0.3535 0.46402,-0.8866 0.27355,-1.3508c-0.19047,-0.4641 -0.64185,-0.7677 -1.14355,-0.7692c-0.328868,0 -0.644267,-0.1306 -0.876812,-0.3632c-0.232546,-0.2325 -0.363188,-0.5479 -0.363188,-0.8768l0,-2.14c0,-0.68483 0.555167,-1.24 1.24,-1.24c0.5017,-0.00146 0.95308,-0.30509 1.14355,-0.76923c0.19047,-0.46413 0.0825,-0.99731 -0.27355,-1.35077c-0.47763,-0.48945 -0.47763,-1.27055 0,-1.76l1.5,-1.5c0.48945,-0.47763 1.27055,-0.47763 1.76,0c0.22576,0.23919 0.54111,0.37331 0.87,0.37c0.33234,0.00269 0.65185,-0.12814 0.88685,-0.36315c0.23501,-0.235 0.36584,-0.55451 0.36315,-0.88685c0,-0.684833 0.55517,-1.24 1.24,-1.24l2.15,0c0.6848,0 1.24,0.555167 1.24,1.24c-0.0027,0.33234 0.1281,0.65185 0.3631,0.88685c0.2351,0.23501 0.5546,0.36584 0.8869,0.36315c0.3289,0.00331 0.6442,-0.13081 0.87,-0.37c0.4895,-0.47763 1.2705,-0.47763 1.76,0l1.5,1.5c0.4776,0.48945 0.4776,1.27055 0,1.76c-0.356,0.35346 -0.464,0.88664 -0.2736,1.35077zm-10.88656,3.07933c0,-1.91091 1.5491,-3.46 3.46,-3.46c0.91766,0 1.79776,0.36453 2.44656,1.01341c0.6489,0.64887 1.0134,1.52894 1.0134,2.44659c0,1.9109 -1.5491,3.46 -3.45996,3.46c-1.9109,0 -3.46,-1.5491 -3.46,-3.46z" clip-rule="evenodd" fill-rule="evenodd"/>
 </g>
</svg>