<svg width="15" height="20" xmlns="http://www.w3.org/2000/svg">

 <g>
  <title>background</title>
  <rect fill="none" id="canvas_background" height="402" width="582" y="-1" x="-1"/>
 </g>
 <g>
  <title>Layer 1</title>
  <path id="svg_1" fill="#7b61ff" d="m7.0513,0l-1.37,2.8c-0.97895,2.00035 -2.29099,3.81962 -3.88,5.38l-0.18,0.17c-1.02054,0.99076 -1.60364,2.3477 -1.62,3.77l0,0.18c-0.02703,2.7851 1.63261,5.3101 4.2,6.39l0.26,0.11c1.68387,0.7152 3.58614,0.7152 5.27,0l0.06,0c2.5866,-1.1238 4.2462,-3.6901 4.21,-6.51l0,-4.34c-0.862,1.96853 -2.4274,3.5446 -4.39,4.42c0,0 0,0 -0.06,0c-0.06,0 -0.76,0.29 -1.06,0c-0.26795,-0.2711 -0.29361,-0.6988 -0.06,-1l0.07,-0.05l0.05,0c2.2958,-1.74502 2.831,-4.97828 1.22,-7.37c-1.3,-1.98 -2.72,-3.95 -2.72,-3.95z"/>
 </g>
</svg>